<?xml version="1.0" encoding="iso-8859-1"?>
<!-- Uploaded to: SVG Repo, www.svgrepo.com, Generator: SVG Repo Mixer Tools -->
<svg version="1.1" id="Layer_1" xmlns="http://www.w3.org/2000/svg" xmlns:xlink="http://www.w3.org/1999/xlink" 
	 viewBox="0 0 512 512" xml:space="preserve">
<path d="M0,304.096V28.544c0-4.896,4.184-8.888,9.288-8.888h436.536c5.104,0,9.288,4,9.288,8.888v275.552H0z"/>
<g>
	<path style="fill:#999999;" d="M455.112,304.096v37.92c0,5.216-4.184,9.488-9.288,9.488H9.288C4.184,351.512,0,347.24,0,342.032
		v-37.92L455.112,304.096L455.112,304.096z"/>
	<polygon style="fill:#999999;" points="161.184,417.88 293.92,417.88 284.448,351.512 170.664,351.512 	"/>
</g>
<g>
	<polygon style="fill:#636363;" points="284.448,351.512 170.664,351.512 164.76,392.872 286.656,366.976 	"/>
	<rect x="128" y="417.84" style="fill:#636363;" width="199.112" height="9.48"/>
</g>
<g>
	<rect x="105.496" y="212.856" style="fill:#FFFFFF;" width="244.12" height="9.48"/>
	<rect x="55.512" y="242.48" style="fill:#FFFFFF;" width="344.08" height="9.48"/>
</g>
<circle style="fill:#E50914;" cx="98.744" cy="120.16" r="47.528"/>
<polygon style="fill:#FFFFFF;" points="95.192,141.328 77.392,123.52 84.096,116.816 94.416,127.144 114.616,101.992 122,107.92 "/>
<circle style="fill:#999999;" cx="225.68" cy="120.16" r="47.528"/>
<polygon points="222.16,141.328 204.352,123.52 211.056,116.816 221.384,127.144 241.576,101.992 248.968,107.92 "/>
<circle style="fill:#E50914;" cx="356.368" cy="120.16" r="47.528"/>
<polygon style="fill:#FFFFFF;" points="352.816,141.328 335.008,123.52 341.712,116.816 352.04,127.144 372.232,101.992 
	379.624,107.92 "/>
<path d="M503.216,492.344H356.8c-4.832,0-8.784-3.952-8.784-8.784V208.296c0-4.832,3.952-8.784,8.784-8.784h146.416
	c4.832,0,8.784,3.952,8.784,8.784V483.56C512,488.392,508.048,492.344,503.216,492.344z"/>
<rect x="356.8" y="222.944" width="146.416" height="234.24"/>
<g>
	<path style="fill:#999999;" d="M447.424,214.16h-35.136c-1.608,0-2.928-1.32-2.928-2.928l0,0c0-1.608,1.32-2.928,2.928-2.928
		h35.136c1.608,0,2.928,1.32,2.928,2.928l0,0C450.352,212.84,449.032,214.16,447.424,214.16z"/>
	<path style="fill:#999999;" d="M447.576,474.776H412.44c-1.608,0-2.928-1.32-2.928-2.928l0,0c0-1.608,1.32-2.928,2.928-2.928
		h35.136c1.608,0,2.928,1.32,2.928,2.928l0,0C450.504,473.456,449.184,474.776,447.576,474.776z"/>
</g>
<circle style="fill:#E50914;" cx="429.856" cy="266.08" r="30.968"/>
<polygon style="fill:#FFFFFF;" points="427.544,279.88 415.936,268.272 420.304,263.904 427.032,270.632 440.192,254.24 
	445.008,258.104 "/>
<circle style="fill:#999999;" cx="429.856" cy="340.072" r="30.968"/>
<polygon points="427.544,353.864 415.936,342.256 420.304,337.888 427.032,344.616 440.192,328.224 445.008,332.088 "/>
<circle style="fill:#E50914;" cx="429.856" cy="414.056" r="30.968"/>
<polygon style="fill:#FFFFFF;" points="427.544,427.848 415.936,416.248 420.304,411.88 427.032,418.6 440.192,402.208 
	445.008,406.072 "/>
</svg>